<svg xmlns="http://www.w3.org/2000/svg" viewBox="0 0 200 200" width="100%" height="100%">
  <defs>
    <linearGradient id="grad1" x1="0%" y1="0%" x2="100%" y2="100%">
      <stop offset="0%" style="stop-color:#FF8A65;stop-opacity:1" />
      <stop offset="100%" style="stop-color:#E64A19;stop-opacity:1" />
    </linearGradient>
    <linearGradient id="grad2" x1="100%" y1="100%" x2="0%" y2="0%">
      <stop offset="0%" style="stop-color:#4FC3F7;stop-opacity:1" />
      <stop offset="100%" style="stop-color:#0288D1;stop-opacity:1" />
    </linearGradient>
  </defs>
  
  <circle cx="100" cy="100" r="90" fill="none" stroke="url(#grad2)" stroke-width="12" />
  
  <path d="M60 110 C 60 80, 100 50, 100 50 C 100 50, 140 80, 140 110 C 140 130, 120 145, 100 145 C 80 145, 60 130, 60 110 Z" fill="url(#grad1)" />
  <path d="M100 145 C 100 160, 120 170, 140 160 C 160 150, 160 130, 140 110" fill="none" stroke="url(#grad2)" stroke-width="8" stroke-linecap="round" />
  <path d="M100 145 C 100 160, 80 170, 60 160 C 40 150, 40 130, 60 110" fill="none" stroke="url(#grad2)" stroke-width="8" stroke-linecap="round" />

  <circle cx="100" cy="90" r="15" fill="#fff" opacity="0.9" />
</svg>
